<svg width="65" height="48" viewBox="0 0 65 48" fill="none" xmlns="http://www.w3.org/2000/svg">
<path d="M24.9056 45.7393H24.9055L24.9056 45.743C24.9106 45.8784 24.8858 46.0133 24.833 46.138L24.833 46.138L24.8321 46.1401C24.7944 46.2353 24.7273 46.3158 24.6408 46.3698C24.5451 46.4243 24.4362 46.4513 24.3262 46.4478L24.3262 46.4476L24.321 46.4477C24.2148 46.4498 24.1095 46.4273 24.0133 46.382L24.0133 46.3819L24.0107 46.3808C23.9295 46.3453 23.8599 46.2875 23.81 46.2139C23.7613 46.1379 23.7361 46.049 23.7377 45.9585L23.7394 45.8568H23.6377H23.1411H23.0441L23.0411 45.9537C23.0345 46.1707 23.093 46.3847 23.2092 46.5678L23.2092 46.5678L23.2101 46.5692C23.3236 46.7419 23.4834 46.8791 23.6711 46.9648L23.6714 46.965C23.876 47.0574 24.0984 47.1033 24.3227 47.0993C24.5575 47.1049 24.79 47.0512 24.9988 46.9431L24.9988 46.9432L25.0012 46.9418C25.1955 46.8343 25.3535 46.6713 25.4552 46.4736L25.4552 46.4736L25.4561 46.4717C25.5662 46.2462 25.6201 45.9973 25.6133 45.7463V42.7539V42.6539H25.5133H25.0056H24.9056V42.7539V45.7393Z" fill="black" stroke="black" stroke-width="0.2"/>
<path d="M29.6592 46.3986H27.7143V45.1742H29.4955H29.5955V45.0742V44.6226V44.5226H29.4955H27.7143V43.3066H29.6259H29.7259V43.2066V42.7578V42.6578H29.6259H27.1094H27.0094V42.7578V46.9502V47.0502H27.1094H29.6592H29.7592V46.9502V46.4986V46.3986H29.6592Z" fill="black" stroke="black" stroke-width="0.2"/>
<path d="M35.3784 42.7331L34.5825 45.8524L33.7714 42.7326L33.7519 42.6578H33.6746H33.103H33.0257L33.0062 42.7326L32.1964 45.8475L31.3992 42.733L31.38 42.6578H31.3024H30.7891H30.6582L30.6926 42.7841L31.8329 46.9764L31.853 47.0502H31.9294H32.451H32.5272L32.5474 46.9768L33.3888 43.924L34.2302 46.9768L34.2504 47.0502H34.3266H34.8482H34.9246L34.9447 46.9764L36.085 42.7841L36.1194 42.6578H35.9885H35.4753H35.3976L35.3784 42.7331Z" fill="black" stroke="black" stroke-width="0.2"/>
<path d="M39.7479 46.3986H37.8003V45.1742H39.5842H39.6842V45.0742V44.6226V44.5226H39.5842H37.8003V43.3066H39.7146H39.8146V43.2066V42.7578V42.6578H39.7146H37.1953H37.0953V42.7578V46.9502V47.0502H37.1953H39.7479H39.8479V46.9502V46.4986V46.3986H39.7479Z" fill="black" stroke="black" stroke-width="0.2"/>
<path d="M41.6987 42.7578V42.6578H41.5987H41.0938H40.9937V42.7578V46.9502V47.0502H41.0938H43.5381H43.6381V46.9502V46.4986V46.3986H43.5381H41.6987V42.7578Z" fill="black" stroke="black" stroke-width="0.2"/>
<mask id="path-6-outside-1_602_1077" maskUnits="userSpaceOnUse" x="43.8359" y="41.7617" width="5" height="6" fill="black">
<rect fill="white" x="43.8359" y="41.7617" width="5" height="6"/>
<path d="M45.3409 43.2034H46.2315C46.4219 43.1951 46.6117 43.2303 46.7865 43.3065C46.9151 43.3691 47.0202 43.4717 47.0861 43.5992C47.1497 43.7371 47.181 43.8877 47.1777 44.0396C47.1817 44.1889 47.1503 44.337 47.0861 44.4717C47.021 44.5954 46.9165 44.6936 46.7892 44.7504C46.6137 44.8238 46.4242 44.8571 46.2343 44.848H45.3381L45.3409 43.2034ZM47.05 45.1546C47.2469 45.0568 47.4088 44.9 47.5134 44.7058C47.6138 44.5007 47.666 44.2752 47.666 44.0466C47.666 43.818 47.6138 43.5925 47.5134 43.3874C47.4101 43.1902 47.2481 43.0304 47.05 42.9302C46.7993 42.8098 46.5232 42.7524 46.2454 42.763H44.8359V46.9442H45.3409V45.3052H46.3592L47.2415 46.947H47.8269L46.8836 45.216C46.9412 45.1983 46.997 45.175 47.05 45.1463"/>
</mask>
<path d="M45.3409 43.2034H46.2315C46.4219 43.1951 46.6117 43.2303 46.7865 43.3065C46.9151 43.3691 47.0202 43.4717 47.0861 43.5992C47.1497 43.7371 47.181 43.8877 47.1777 44.0396C47.1817 44.1889 47.1503 44.337 47.0861 44.4717C47.021 44.5954 46.9165 44.6936 46.7892 44.7504C46.6137 44.8238 46.4242 44.8571 46.2343 44.848H45.3381L45.3409 43.2034ZM47.05 45.1546C47.2469 45.0568 47.4088 44.9 47.5134 44.7058C47.6138 44.5007 47.666 44.2752 47.666 44.0466C47.666 43.818 47.6138 43.5925 47.5134 43.3874C47.4101 43.1902 47.2481 43.0304 47.05 42.9302C46.7993 42.8098 46.5232 42.7524 46.2454 42.763H44.8359V46.9442H45.3409V45.3052H46.3592L47.2415 46.947H47.8269L46.8836 45.216C46.9412 45.1983 46.997 45.175 47.05 45.1463" fill="black"/>
<path d="M45.3409 43.2034V43.0034H45.1413L45.1409 43.2031L45.3409 43.2034ZM46.2315 43.2034V43.4036L46.2403 43.4032L46.2315 43.2034ZM46.7865 43.3065L46.874 43.1265L46.8664 43.1232L46.7865 43.3065ZM47.0861 43.5992L47.2679 43.5154L47.2638 43.5074L47.0861 43.5992ZM47.1777 44.0396L46.9775 44.0352L46.9777 44.045L47.1777 44.0396ZM47.0861 44.4717L47.2632 44.5649L47.2667 44.5577L47.0861 44.4717ZM46.7892 44.7504L46.8664 44.935L46.8708 44.933L46.7892 44.7504ZM46.2343 44.848L46.2439 44.648H46.2343V44.848ZM45.3381 44.848L45.1381 44.8477L45.1378 45.048H45.3381V44.848ZM47.5134 44.7058L47.6896 44.8008L47.693 44.7938L47.5134 44.7058ZM47.666 44.0466H47.466H47.666ZM47.5134 43.3874L47.6931 43.2994L47.6905 43.2945L47.5134 43.3874ZM47.05 42.9302L47.1404 42.7517L47.1366 42.7499L47.05 42.9302ZM46.2454 42.763V42.9631L46.2531 42.9628L46.2454 42.763ZM44.8359 42.763V42.563H44.6359V42.763H44.8359ZM44.8359 46.9442H44.6359V47.1442H44.8359V46.9442ZM45.3409 46.9442V47.1442H45.5409V46.9442H45.3409ZM45.3409 45.3052V45.1052H45.1409V45.3052H45.3409ZM46.3592 45.3052L46.5353 45.2105L46.4787 45.1052H46.3592V45.3052ZM47.2415 46.947L47.0653 47.0417L47.1219 47.147H47.2415V46.947ZM47.8269 46.947V47.147H48.1637L48.0025 46.8513L47.8269 46.947ZM46.8836 45.216L46.8251 45.0247L46.5906 45.0963L46.7079 45.3117L46.8836 45.216ZM45.3409 43.4034H46.2315V43.0034H45.3409V43.4034ZM46.2403 43.4032C46.4002 43.3962 46.5596 43.4258 46.7065 43.4899L46.8664 43.1232C46.6637 43.0348 46.4436 42.9939 46.2228 43.0036L46.2403 43.4032ZM46.699 43.4864C46.7888 43.53 46.8623 43.6018 46.9084 43.691L47.2638 43.5074C47.1782 43.3417 47.0415 43.2081 46.8739 43.1267L46.699 43.4864ZM46.9045 43.683C46.9553 43.7932 46.9804 43.9137 46.9777 44.0352L47.3776 44.044C47.3816 43.8617 47.344 43.6809 47.2677 43.5154L46.9045 43.683ZM46.9777 44.045C46.9809 44.1627 46.9561 44.2795 46.9055 44.3857L47.2667 44.5577C47.3444 44.3945 47.3824 44.2151 47.3776 44.0343L46.9777 44.045ZM46.9091 44.3786C46.8648 44.4628 46.7938 44.5293 46.7076 44.5679L46.8708 44.933C47.0392 44.8578 47.1772 44.7281 47.2631 44.5648L46.9091 44.3786ZM46.7121 44.5659C46.564 44.6278 46.4041 44.6559 46.2439 44.6482L46.2247 45.0478C46.4443 45.0583 46.6635 45.0198 46.8664 44.935L46.7121 44.5659ZM46.2343 44.648H45.3381V45.048H46.2343V44.648ZM45.5381 44.8483L45.5409 43.2037L45.1409 43.2031L45.1381 44.8477L45.5381 44.8483ZM47.139 45.3337C47.3731 45.2174 47.5654 45.0311 47.6895 44.8007L47.3373 44.611C47.2523 44.7688 47.1208 44.8961 46.961 44.9755L47.139 45.3337ZM47.693 44.7938C47.8068 44.5612 47.866 44.3056 47.866 44.0466H47.466C47.466 44.2447 47.4207 44.4402 47.3337 44.6179L47.693 44.7938ZM47.866 44.0466C47.866 43.7876 47.8068 43.532 47.693 43.2994L47.3337 43.4753C47.4207 43.653 47.466 43.8485 47.466 44.0466H47.866ZM47.6905 43.2945C47.5679 43.0606 47.3756 42.8708 47.1403 42.7518L46.9597 43.1086C47.1205 43.19 47.2522 43.3199 47.3363 43.4802L47.6905 43.2945ZM47.1366 42.7499C46.8565 42.6154 46.5481 42.5513 46.2378 42.5631L46.2531 42.9628C46.4982 42.9535 46.742 43.0041 46.9634 43.1105L47.1366 42.7499ZM46.2454 42.563H44.8359V42.963H46.2454V42.563ZM44.6359 42.763V46.9442H45.0359V42.763H44.6359ZM44.8359 47.1442H45.3409V46.7442H44.8359V47.1442ZM45.5409 46.9442V45.3052H45.1409V46.9442H45.5409ZM45.3409 45.5052H46.3592V45.1052H45.3409V45.5052ZM46.183 45.3998L47.0653 47.0417L47.4177 46.8523L46.5353 45.2105L46.183 45.3998ZM47.2415 47.147H47.8269V46.747H47.2415V47.147ZM48.0025 46.8513L47.0592 45.1203L46.7079 45.3117L47.6513 47.0427L48.0025 46.8513ZM46.942 45.4072C47.0124 45.3857 47.0805 45.3572 47.1453 45.3221L46.9548 44.9704C46.9134 44.9928 46.87 45.011 46.8251 45.0247L46.942 45.4072Z" fill="black" mask="url(#path-6-outside-1_602_1077)"/>
<path d="M51.5113 42.6578H51.4543L51.4253 42.7069L50.3294 44.5604L49.2335 42.7069L49.2045 42.6578H49.1474H48.5703H48.392L48.485 42.81L49.9769 45.2501V46.9502V47.0502H50.0769H50.5819H50.6819V46.9502V45.2501L52.1765 42.81L52.2697 42.6578H52.0912H51.5113Z" fill="black" stroke="black" stroke-width="0.2"/>
<path d="M28.239 25.8969H28.1338L28.098 25.9958L23.5699 38.5005L23.4971 38.7016H23.7109H24.904H25.0101L25.0454 38.6016L26.3418 34.9329H31.3514L32.6506 38.6017L32.686 38.7016H32.792H33.9823H34.1961L34.1233 38.5005L29.5953 25.9958L29.5595 25.8969H29.4542H28.239ZM30.8957 33.6071H26.8119L28.8615 27.8569L30.8957 33.6071Z" fill="#F9C859" stroke="#F9C859" stroke-width="0.3"/>
<path d="M38.1363 28.4153L45.316 38.6417L45.3608 38.7055H45.4388H46.5458H46.6958V38.5555V26.0508V25.9008H46.5458H45.4277H45.2777V26.0508V36.1989L38.0729 25.9644L38.0281 25.9008H37.9503H36.8516H36.7016V26.0508V38.5555V38.7055H36.8516H37.9863H38.1363V38.5555V28.4153Z" fill="#F9C859" stroke="#F9C859" stroke-width="0.3"/>
<path d="M51.8501 26.0508V25.9008H51.7001H50.5625H50.4125V26.0508V38.5555V38.7055H50.5625H51.7001H51.8501V38.5555V26.0508Z" fill="#F9C859" stroke="#F9C859" stroke-width="0.3"/>
<mask id="path-12-outside-2_602_1077" maskUnits="userSpaceOnUse" x="54.0938" y="24.875" width="10" height="15" fill="black">
<rect fill="white" x="54.0938" y="24.875" width="10" height="15"/>
<path d="M63.3702 33.8928C63.1732 33.5264 62.903 33.2047 62.5767 32.9479C62.2413 32.6869 61.8739 32.4705 61.4835 32.304C61.0968 32.1365 60.6991 31.9959 60.2932 31.8831L58.9809 31.504C58.6779 31.4163 58.3804 31.3102 58.0903 31.1862C57.8068 31.0656 57.5378 30.9132 57.2884 30.7318C57.0544 30.562 56.8587 30.3445 56.7141 30.0935C56.568 29.8285 56.4943 29.5294 56.5005 29.2266C56.495 28.7963 56.6262 28.3754 56.875 28.0252C57.1378 27.6581 57.4944 27.3691 57.9071 27.1889C58.3894 26.9797 58.9107 26.877 59.4359 26.8879C60.168 26.8594 60.8886 27.0772 61.4835 27.5067C61.7484 27.7016 61.9678 27.9523 62.1264 28.2411C62.285 28.53 62.379 28.8501 62.4019 29.1792H63.5117C63.4966 28.57 63.3037 27.9787 62.9568 27.4788C62.5937 26.9695 62.1038 26.5648 61.5362 26.3053C60.8929 26.0081 60.191 25.8613 59.4831 25.876C58.7699 25.8655 58.0632 26.0131 57.4133 26.3081C56.831 26.5702 56.3283 26.9829 55.9566 27.5039C55.5942 28.0223 55.4057 28.6433 55.4184 29.2768C55.4067 29.6452 55.4725 30.0119 55.6117 30.353C55.7508 30.694 55.9601 31.0017 56.2258 31.2559C56.8769 31.8358 57.6557 32.2523 58.4981 32.4712L59.988 32.9116C60.4546 33.0442 60.9086 33.2177 61.3448 33.4301C61.7005 33.5979 62.0136 33.8448 62.2604 34.1521C62.4859 34.4609 62.6012 34.837 62.5878 35.2197C62.5964 35.6923 62.4502 36.1546 62.1716 36.5354C61.8766 36.9254 61.4828 37.2287 61.0313 37.4135C60.0132 37.8154 58.8846 37.8332 57.8544 37.4636C57.424 37.3033 57.0418 37.0346 56.7446 36.6831C56.456 36.3275 56.2861 35.8896 56.2591 35.4316H55.0938C55.1263 36.0574 55.334 36.6613 55.6931 37.1737C56.0712 37.6899 56.5798 38.0951 57.1663 38.3473C58.6199 38.9301 60.2434 38.9151 61.6861 38.3055C62.2885 38.0294 62.8025 37.5902 63.1704 37.0372C63.5156 36.5012 63.6952 35.8747 63.6865 35.2364C63.6998 34.771 63.5957 34.3098 63.3841 33.8956"/>
</mask>
<path d="M63.3702 33.8928C63.1732 33.5264 62.903 33.2047 62.5767 32.9479C62.2413 32.6869 61.8739 32.4705 61.4835 32.304C61.0968 32.1365 60.6991 31.9959 60.2932 31.8831L58.9809 31.504C58.6779 31.4163 58.3804 31.3102 58.0903 31.1862C57.8068 31.0656 57.5378 30.9132 57.2884 30.7318C57.0544 30.562 56.8587 30.3445 56.7141 30.0935C56.568 29.8285 56.4943 29.5294 56.5005 29.2266C56.495 28.7963 56.6262 28.3754 56.875 28.0252C57.1378 27.6581 57.4944 27.3691 57.9071 27.1889C58.3894 26.9797 58.9107 26.877 59.4359 26.8879C60.168 26.8594 60.8886 27.0772 61.4835 27.5067C61.7484 27.7016 61.9678 27.9523 62.1264 28.2411C62.285 28.53 62.379 28.8501 62.4019 29.1792H63.5117C63.4966 28.57 63.3037 27.9787 62.9568 27.4788C62.5937 26.9695 62.1038 26.5648 61.5362 26.3053C60.8929 26.0081 60.191 25.8613 59.4831 25.876C58.7699 25.8655 58.0632 26.0131 57.4133 26.3081C56.831 26.5702 56.3283 26.9829 55.9566 27.5039C55.5942 28.0223 55.4057 28.6433 55.4184 29.2768C55.4067 29.6452 55.4725 30.0119 55.6117 30.353C55.7508 30.694 55.9601 31.0017 56.2258 31.2559C56.8769 31.8358 57.6557 32.2523 58.4981 32.4712L59.988 32.9116C60.4546 33.0442 60.9086 33.2177 61.3448 33.4301C61.7005 33.5979 62.0136 33.8448 62.2604 34.1521C62.4859 34.4609 62.6012 34.837 62.5878 35.2197C62.5964 35.6923 62.4502 36.1546 62.1716 36.5354C61.8766 36.9254 61.4828 37.2287 61.0313 37.4135C60.0132 37.8154 58.8846 37.8332 57.8544 37.4636C57.424 37.3033 57.0418 37.0346 56.7446 36.6831C56.456 36.3275 56.2861 35.8896 56.2591 35.4316H55.0938C55.1263 36.0574 55.334 36.6613 55.6931 37.1737C56.0712 37.6899 56.5798 38.0951 57.1663 38.3473C58.6199 38.9301 60.2434 38.9151 61.6861 38.3055C62.2885 38.0294 62.8025 37.5902 63.1704 37.0372C63.5156 36.5012 63.6952 35.8747 63.6865 35.2364C63.6998 34.771 63.5957 34.3098 63.3841 33.8956" fill="#F9C859"/>
<path d="M62.5767 32.9479L62.7622 32.7121L62.7609 32.7111L62.5767 32.9479ZM61.4835 32.304L61.3643 32.5793L61.3658 32.5799L61.4835 32.304ZM60.2932 31.8831L60.21 32.1713L60.2129 32.1721L60.2932 31.8831ZM58.9809 31.504L58.8976 31.7922L58.8976 31.7922L58.9809 31.504ZM58.0903 31.1862L58.2082 30.9103L58.2077 30.9101L58.0903 31.1862ZM57.2884 30.7318L57.4649 30.4892L57.4646 30.489L57.2884 30.7318ZM56.7141 30.0935L56.4513 30.2383L56.4541 30.2432L56.7141 30.0935ZM56.5005 29.2266L56.8006 29.2327L56.8004 29.2228L56.5005 29.2266ZM56.875 28.0252L56.6311 27.8506L56.6304 27.8514L56.875 28.0252ZM57.9071 27.1889L57.7877 26.9137L57.7871 26.914L57.9071 27.1889ZM59.4359 26.8879L59.4297 27.1878L59.4386 27.188L59.4476 27.1876L59.4359 26.8879ZM61.4835 27.5067L61.6614 27.2651L61.6591 27.2635L61.4835 27.5067ZM62.4019 29.1792L62.1026 29.2L62.122 29.4792H62.4019V29.1792ZM63.5117 29.1792V29.4792H63.8192L63.8116 29.1718L63.5117 29.1792ZM62.9568 27.4788L63.2033 27.3078L63.2011 27.3047L62.9568 27.4788ZM61.5362 26.3053L61.4104 26.5776L61.4115 26.5781L61.5362 26.3053ZM59.4831 25.876L59.4787 26.1762L59.4893 26.1759L59.4831 25.876ZM57.4133 26.3081L57.5364 26.5816L57.5372 26.5813L57.4133 26.3081ZM55.9566 27.5039L55.7124 27.3297L55.7108 27.332L55.9566 27.5039ZM55.4184 29.2768L55.7182 29.2863L55.7185 29.2785L55.7183 29.2707L55.4184 29.2768ZM56.2258 31.2559L56.0183 31.4728L56.0263 31.4799L56.2258 31.2559ZM58.4981 32.4712L58.5832 32.1834L58.5736 32.1809L58.4981 32.4712ZM59.988 32.9116L59.903 33.1994L59.9061 33.2002L59.988 32.9116ZM61.3448 33.4301L61.2134 33.6999L61.2168 33.7015L61.3448 33.4301ZM62.2604 34.1521L62.5029 33.975L62.4943 33.9642L62.2604 34.1521ZM62.5878 35.2197L62.288 35.2092L62.2877 35.2172L62.2878 35.2252L62.5878 35.2197ZM62.1716 36.5354L62.4109 36.7164L62.4137 36.7125L62.1716 36.5354ZM61.0313 37.4135L61.1414 37.6925L61.1449 37.6911L61.0313 37.4135ZM57.8544 37.4636L57.7497 37.7448L57.7531 37.746L57.8544 37.4636ZM56.7446 36.6831L56.5116 36.8722L56.5156 36.8769L56.7446 36.6831ZM56.2591 35.4316L56.5586 35.4139L56.5419 35.1316H56.2591V35.4316ZM55.0938 35.4316V35.1316H54.7778L54.7942 35.4471L55.0938 35.4316ZM55.6931 37.1737L55.4473 37.3459L55.451 37.351L55.6931 37.1737ZM57.1663 38.3473L57.0478 38.623L57.0547 38.6257L57.1663 38.3473ZM61.6861 38.3055L61.8029 38.5819L61.8111 38.5782L61.6861 38.3055ZM63.1704 37.0372L63.4202 37.2034L63.4227 37.1996L63.1704 37.0372ZM63.6865 35.2364L63.3864 35.2279L63.3865 35.2405L63.6865 35.2364ZM63.6344 33.7508C63.4179 33.3481 63.121 32.9945 62.7622 32.7121L62.3911 33.1836C62.685 33.4149 62.9284 33.7047 63.106 34.0349L63.6344 33.7508ZM62.7609 32.7111C62.4052 32.4343 62.0155 32.2047 61.6012 32.028L61.3658 32.5799C61.7324 32.7363 62.0775 32.9396 62.3924 33.1846L62.7609 32.7111ZM61.6027 32.0287C61.2034 31.8558 60.7927 31.7106 60.3736 31.594L60.2129 32.1721C60.6055 32.2813 60.9902 32.4173 61.3643 32.5793L61.6027 32.0287ZM60.3765 31.5949L59.0641 31.2157L58.8976 31.7922L60.21 32.1713L60.3765 31.5949ZM59.0642 31.2158C58.7729 31.1315 58.4871 31.0296 58.2082 30.9103L57.9724 31.4621C58.2738 31.5909 58.5828 31.7011 58.8976 31.7922L59.0642 31.2158ZM58.2077 30.9101C57.9451 30.7984 57.6959 30.6572 57.4649 30.4892L57.112 30.9745C57.3797 31.1691 57.6685 31.3328 57.9728 31.4623L58.2077 30.9101ZM57.4646 30.489C57.2648 30.3441 57.0976 30.1583 56.974 29.9438L56.4541 30.2432C56.6197 30.5308 56.844 30.78 57.1123 30.9747L57.4646 30.489ZM56.9768 29.9487C56.8562 29.7299 56.7953 29.4829 56.8004 29.2327L56.2005 29.2205C56.1933 29.576 56.2798 29.9271 56.4513 30.2383L56.9768 29.9487ZM56.8004 29.2228C56.7958 28.8559 56.9076 28.4973 57.1196 28.1989L56.6304 27.8514C56.3448 28.2536 56.1942 28.7366 56.2005 29.2304L56.8004 29.2228ZM57.119 28.1998C57.3503 27.8766 57.6641 27.6224 58.0272 27.4639L57.7871 26.914C57.3246 27.1159 56.9252 27.4396 56.6311 27.8506L57.119 28.1998ZM58.0266 27.4641C58.4692 27.272 58.9477 27.1778 59.4297 27.1878L59.4421 26.5879C58.8737 26.5762 58.3095 26.6873 57.7877 26.9137L58.0266 27.4641ZM59.4476 27.1876C60.1125 27.1618 60.7672 27.3596 61.3079 27.7499L61.6591 27.2635C61.0099 26.7948 60.2234 26.557 59.4243 26.5881L59.4476 27.1876ZM61.3057 27.7483C61.5354 27.9174 61.7258 28.1348 61.8635 28.3855L62.3894 28.0967C62.2098 27.7697 61.9614 27.4859 61.6613 27.2651L61.3057 27.7483ZM61.8635 28.3855C62.0011 28.6362 62.0828 28.9142 62.1026 29.2L62.7012 29.1584C62.6753 28.786 62.5689 28.4237 62.3894 28.0967L61.8635 28.3855ZM62.4019 29.4792H63.5117V28.8792H62.4019V29.4792ZM63.8116 29.1718C63.7951 28.5041 63.5836 27.8559 63.2033 27.3078L62.7103 27.6498C63.0237 28.1015 63.1982 28.6359 63.2118 29.1866L63.8116 29.1718ZM63.2011 27.3047C62.8075 26.7526 62.2765 26.3139 61.661 26.0325L61.4115 26.5781C61.9312 26.8157 62.3798 27.1863 62.7125 27.653L63.2011 27.3047ZM61.662 26.0329C60.9774 25.7167 60.2303 25.5605 59.4769 25.5761L59.4893 26.1759C60.1516 26.1622 60.8084 26.2995 61.4104 26.5776L61.662 26.0329ZM59.4875 25.576C58.7301 25.5649 57.9795 25.7216 57.2893 26.0349L57.5372 26.5813C58.147 26.3045 58.8098 26.1662 59.4787 26.176L59.4875 25.576ZM57.2901 26.0345C56.6593 26.3185 56.1149 26.7655 55.7124 27.3297L56.2008 27.6781C56.5418 27.2002 57.0027 26.8219 57.5364 26.5816L57.2901 26.0345ZM55.7108 27.332C55.3118 27.9026 55.1044 28.5859 55.1184 29.2828L55.7183 29.2707C55.7069 28.7007 55.8765 28.1421 56.2025 27.6758L55.7108 27.332ZM55.1185 29.2672C55.1055 29.6776 55.1789 30.0862 55.3339 30.4663L55.8894 30.2396C55.7662 29.9376 55.7079 29.6127 55.7182 29.2863L55.1185 29.2672ZM55.3339 30.4663C55.4889 30.8463 55.7222 31.1893 56.0184 31.4727L56.4332 31.0391C56.198 30.8141 56.0127 30.5417 55.8894 30.2396L55.3339 30.4663ZM56.0263 31.4799C56.7128 32.0914 57.5341 32.5307 58.4227 32.7616L58.5736 32.1809C57.7772 31.974 57.041 31.5802 56.4253 31.0319L56.0263 31.4799ZM58.4131 32.7589L59.903 33.1993L60.0731 32.6239L58.5832 32.1835L58.4131 32.7589ZM59.9061 33.2002C60.3556 33.3279 60.7931 33.4951 61.2134 33.6998L61.4762 33.1604C61.024 32.9402 60.5535 32.7604 60.07 32.6231L59.9061 33.2002ZM61.2168 33.7015C61.5313 33.8498 61.8082 34.0681 62.0265 34.3399L62.4943 33.9642C62.2191 33.6215 61.8698 33.3461 61.4728 33.1588L61.2168 33.7015ZM62.0181 34.329C62.2039 34.5834 62.2991 34.8935 62.288 35.2092L62.8876 35.2302C62.9034 34.7805 62.7679 34.3383 62.5027 33.9751L62.0181 34.329ZM62.2878 35.2252C62.2953 35.6323 62.1693 36.0304 61.9295 36.3583L62.4137 36.7125C62.7311 36.2787 62.8976 35.7522 62.8877 35.2142L62.2878 35.2252ZM61.9323 36.3544C61.6697 36.7016 61.3193 36.9714 60.9176 37.1358L61.1449 37.6911C61.6464 37.4859 62.0835 37.1492 62.4109 36.7164L61.9323 36.3544ZM60.9211 37.1344C59.9707 37.5096 58.9174 37.5262 57.9557 37.1813L57.7531 37.746C58.8519 38.1402 60.0556 38.1212 61.1414 37.6925L60.9211 37.1344ZM57.9591 37.1825C57.5771 37.0402 57.2377 36.8016 56.9737 36.4894L56.5156 36.8769C56.846 37.2676 57.2709 37.5665 57.7497 37.7448L57.9591 37.1825ZM56.9776 36.4941C56.7286 36.1873 56.5819 35.8094 56.5586 35.4139L55.9596 35.4492C55.9903 35.9699 56.1834 36.4677 56.5117 36.8722L56.9776 36.4941ZM56.2591 35.1316H55.0938V35.7316H56.2591V35.1316ZM54.7942 35.4471C54.8296 36.1291 55.056 36.7872 55.4474 37.3459L55.9388 37.0016C55.6121 36.5353 55.423 35.9857 55.3933 35.416L54.7942 35.4471ZM55.451 37.351C55.8608 37.9103 56.412 38.3495 57.0478 38.6229L57.2848 38.0717C56.7477 37.8407 56.2816 37.4695 55.9351 36.9965L55.451 37.351ZM57.0547 38.6257C58.5817 39.238 60.2873 39.2222 61.8028 38.5818L61.5693 38.0291C60.1995 38.608 58.6581 38.6222 57.278 38.0688L57.0547 38.6257ZM61.8111 38.5782C62.4643 38.2788 63.0214 37.8027 63.4202 37.2033L62.9207 36.871C62.5835 37.3777 62.1127 37.7799 61.5611 38.0327L61.8111 38.5782ZM63.4227 37.1996C63.7998 36.614 63.9959 35.9295 63.9865 35.2324L63.3865 35.2405C63.3944 35.8198 63.2314 36.3885 62.9182 36.8747L63.4227 37.1996ZM63.9864 35.245C64.0011 34.7293 63.8858 34.2182 63.6512 33.7591L63.1169 34.0322C63.3057 34.4014 63.3985 34.8128 63.3866 35.2279L63.9864 35.245Z" fill="#F9C859" mask="url(#path-12-outside-2_602_1077)"/>
<mask id="path-14-outside-3_602_1077" maskUnits="userSpaceOnUse" x="0" y="0" width="65" height="44" fill="black">
<rect fill="white" width="65" height="44"/>
<path d="M21.2464 28.1811C20.3918 31.0996 16.205 35.3924 11.2913 38.3917C6.3776 41.3911 2.50989 42.0991 2.13533 41.6001C2.03822 41.2489 2.17418 40.736 2.52655 40.1144C4.31335 36.9813 10.8502 32.0808 19.626 27.3309C20.2059 27.0187 20.7885 26.7093 21.3795 26.3999C21.4747 26.9965 21.4262 27.6073 21.2381 28.1811H21.2464ZM21.9455 24.8556C20.4279 22.4166 16.2799 21.5524 12.6148 20.7915C10.9917 20.4514 9.46012 20.1336 8.35308 19.7155C6.13345 18.8792 5.04859 17.9231 5.08189 16.8472C5.13183 15.3475 7.24328 12.8025 10.7281 10.0373C16.2023 5.69715 24.2789 1.46294 27.7998 2.19047C27.9705 2.21429 28.1323 2.28197 28.2693 2.38696C28.4064 2.49195 28.5142 2.6307 28.5822 2.78979C28.8098 3.31662 29.0622 5.01978 26.4681 9.34877C26.3953 9.46403 26.3648 9.60121 26.3821 9.7366C26.3993 9.872 26.4631 9.99709 26.5624 10.0902C26.6236 10.1422 26.6953 10.1802 26.7726 10.2017C26.8498 10.2231 26.9308 10.2275 27.0099 10.2145C27.0889 10.2016 27.1643 10.1715 27.2308 10.1265C27.2972 10.0814 27.3531 10.0225 27.3947 9.95365C29.5117 6.4191 30.2497 3.86018 29.5894 2.34099C29.451 2.01799 29.2343 1.73498 28.959 1.5178C28.6837 1.30063 28.3586 1.15622 28.0135 1.09777C24.1291 0.294971 15.8277 4.56542 10.0345 9.15922C7.81484 10.9293 4.04979 14.2743 3.96655 16.8109C3.91106 18.4193 5.25394 19.7489 7.95634 20.7636C9.14384 21.2096 10.7309 21.5385 12.3956 21.8786C15.8027 22.5866 19.6538 23.3894 20.9661 25.3713C10.606 30.7791 3.5032 36.1589 1.56935 39.5541C1.05883 40.4517 0.889573 41.2406 1.06992 41.8928C1.1217 42.0754 1.21658 42.2427 1.34652 42.3805C1.47647 42.5184 1.63764 42.6226 1.81629 42.6845C2.11837 42.7901 2.43712 42.8392 2.75682 42.8294C4.75172 42.8294 8.36419 41.4747 11.8629 39.3395C16.1246 36.7415 21.2103 32.2397 22.309 28.4933C22.5833 27.6458 22.615 26.7378 22.4006 25.8731C31.0544 21.3601 45.4292 15.3781 63.5831 11.6429C63.6545 11.6282 63.7223 11.5996 63.7827 11.5586C63.8431 11.5176 63.8949 11.4651 63.9351 11.404C63.9752 11.3429 64.0031 11.2745 64.0169 11.2026C64.0308 11.1307 64.0304 11.0568 64.0159 10.985C64.0013 10.9133 63.9728 10.8451 63.932 10.7844C63.8912 10.7238 63.8389 10.6717 63.7781 10.6314C63.7173 10.591 63.6492 10.563 63.5776 10.5491C63.5061 10.5352 63.4325 10.5355 63.3611 10.5502C45.1213 14.3022 30.6742 20.3064 21.9511 24.85"/>
</mask>
<path d="M21.2464 28.1811C20.3918 31.0996 16.205 35.3924 11.2913 38.3917C6.3776 41.3911 2.50989 42.0991 2.13533 41.6001C2.03822 41.2489 2.17418 40.736 2.52655 40.1144C4.31335 36.9813 10.8502 32.0808 19.626 27.3309C20.2059 27.0187 20.7885 26.7093 21.3795 26.3999C21.4747 26.9965 21.4262 27.6073 21.2381 28.1811H21.2464ZM21.9455 24.8556C20.4279 22.4166 16.2799 21.5524 12.6148 20.7915C10.9917 20.4514 9.46012 20.1336 8.35308 19.7155C6.13345 18.8792 5.04859 17.9231 5.08189 16.8472C5.13183 15.3475 7.24328 12.8025 10.7281 10.0373C16.2023 5.69715 24.2789 1.46294 27.7998 2.19047C27.9705 2.21429 28.1323 2.28197 28.2693 2.38696C28.4064 2.49195 28.5142 2.6307 28.5822 2.78979C28.8098 3.31662 29.0622 5.01978 26.4681 9.34877C26.3953 9.46403 26.3648 9.60121 26.3821 9.7366C26.3993 9.872 26.4631 9.99709 26.5624 10.0902C26.6236 10.1422 26.6953 10.1802 26.7726 10.2017C26.8498 10.2231 26.9308 10.2275 27.0099 10.2145C27.0889 10.2016 27.1643 10.1715 27.2308 10.1265C27.2972 10.0814 27.3531 10.0225 27.3947 9.95365C29.5117 6.4191 30.2497 3.86018 29.5894 2.34099C29.451 2.01799 29.2343 1.73498 28.959 1.5178C28.6837 1.30063 28.3586 1.15622 28.0135 1.09777C24.1291 0.294971 15.8277 4.56542 10.0345 9.15922C7.81484 10.9293 4.04979 14.2743 3.96655 16.8109C3.91106 18.4193 5.25394 19.7489 7.95634 20.7636C9.14384 21.2096 10.7309 21.5385 12.3956 21.8786C15.8027 22.5866 19.6538 23.3894 20.9661 25.3713C10.606 30.7791 3.5032 36.1589 1.56935 39.5541C1.05883 40.4517 0.889573 41.2406 1.06992 41.8928C1.1217 42.0754 1.21658 42.2427 1.34652 42.3805C1.47647 42.5184 1.63764 42.6226 1.81629 42.6845C2.11837 42.7901 2.43712 42.8392 2.75682 42.8294C4.75172 42.8294 8.36419 41.4747 11.8629 39.3395C16.1246 36.7415 21.2103 32.2397 22.309 28.4933C22.5833 27.6458 22.615 26.7378 22.4006 25.8731C31.0544 21.3601 45.4292 15.3781 63.5831 11.6429C63.6545 11.6282 63.7223 11.5996 63.7827 11.5586C63.8431 11.5176 63.8949 11.4651 63.9351 11.404C63.9752 11.3429 64.0031 11.2745 64.0169 11.2026C64.0308 11.1307 64.0304 11.0568 64.0159 10.985C64.0013 10.9133 63.9728 10.8451 63.932 10.7844C63.8912 10.7238 63.8389 10.6717 63.7781 10.6314C63.7173 10.591 63.6492 10.563 63.5776 10.5491C63.5061 10.5352 63.4325 10.5355 63.3611 10.5502C45.1213 14.3022 30.6742 20.3064 21.9511 24.85" fill="#F9C859"/>
<path d="M21.2464 28.1811L21.5343 28.2654L21.6468 27.8811H21.2464V28.1811ZM2.13533 41.6001L1.84618 41.6801L1.86131 41.7348L1.89541 41.7803L2.13533 41.6001ZM2.52655 40.1144L2.26595 39.9658L2.26556 39.9665L2.52655 40.1144ZM19.626 27.3309L19.4838 27.0668L19.4832 27.0671L19.626 27.3309ZM21.3795 26.3999L21.6758 26.3526L21.61 25.9406L21.2404 26.1341L21.3795 26.3999ZM21.2381 28.1811L20.953 28.0876L20.824 28.4811H21.2381V28.1811ZM12.6148 20.7915L12.5532 21.0851L12.5538 21.0852L12.6148 20.7915ZM8.35308 19.7155L8.45908 19.4348L8.45885 19.4347L8.35308 19.7155ZM5.08189 16.8472L4.78205 16.8372L4.78203 16.8379L5.08189 16.8472ZM10.7281 10.0373L10.5417 9.80221L10.5416 9.80228L10.7281 10.0373ZM27.7998 2.19047L27.7391 2.48427L27.7487 2.48625L27.7584 2.4876L27.7998 2.19047ZM28.5822 2.78979L28.3064 2.9078L28.3068 2.90872L28.5822 2.78979ZM26.4681 9.34877L26.7218 9.50901L26.7254 9.50298L26.4681 9.34877ZM26.5624 10.0902L26.3571 10.309L26.3626 10.3142L26.3683 10.319L26.5624 10.0902ZM27.3947 9.95365L27.6515 10.1088L27.6521 10.1078L27.3947 9.95365ZM29.5894 2.34099L29.3136 2.45914L29.3143 2.46058L29.5894 2.34099ZM28.0135 1.09777L27.9527 1.39175L27.9634 1.39356L28.0135 1.09777ZM10.0345 9.15922L9.84807 8.92416L9.84742 8.92467L10.0345 9.15922ZM3.96655 16.8109L4.26638 16.8213L4.26639 16.8208L3.96655 16.8109ZM7.95634 20.7636L8.06182 20.4827L8.06179 20.4827L7.95634 20.7636ZM12.3956 21.8786L12.4566 21.5849L12.4556 21.5847L12.3956 21.8786ZM20.9661 25.3713L21.1049 25.6373L21.4 25.4832L21.2163 25.2057L20.9661 25.3713ZM1.56935 39.5541L1.30867 39.4056L1.30858 39.4058L1.56935 39.5541ZM1.06992 41.8928L0.78076 41.9728L0.781302 41.9747L1.06992 41.8928ZM1.81629 42.6845L1.91529 42.4013L1.91443 42.401L1.81629 42.6845ZM2.75682 42.8294V42.5293L2.74764 42.5296L2.75682 42.8294ZM11.8629 39.3395L11.7067 39.0833L11.7066 39.0834L11.8629 39.3395ZM22.309 28.4933L22.0235 28.4009L22.0211 28.4089L22.309 28.4933ZM22.4006 25.8731L22.2618 25.6071L22.0526 25.7162L22.1094 25.9453L22.4006 25.8731ZM63.5831 11.6429L63.5228 11.349L63.5226 11.349L63.5831 11.6429ZM63.3611 10.5502L63.3008 10.2563L63.3006 10.2563L63.3611 10.5502ZM20.9584 28.0968C20.5521 29.4846 19.3335 31.2445 17.5762 33.0467C15.8267 34.8409 13.5714 36.6485 11.135 38.1357L11.4476 38.6478C13.9249 37.1356 16.2199 35.2971 18.0058 33.4655C19.784 31.6419 21.0861 29.7961 21.5343 28.2654L20.9584 28.0968ZM11.135 38.1357C8.69805 39.6232 6.52604 40.539 4.92475 41.0205C4.12283 41.2617 3.47184 41.3915 3.00682 41.4323C2.77308 41.4527 2.59792 41.4496 2.47897 41.4318C2.34034 41.4112 2.34601 41.3811 2.37525 41.42L1.89541 41.7803C2.01829 41.9439 2.22677 42.0009 2.39053 42.0253C2.57399 42.0526 2.80083 42.0526 3.05914 42.03C3.57821 41.9845 4.27149 41.8435 5.09753 41.5951C6.75216 41.0975 8.97086 40.1596 11.4476 38.6478L11.135 38.1357ZM2.42448 41.5202C2.39497 41.4135 2.39449 41.255 2.45247 41.0352C2.50986 40.8176 2.61974 40.5583 2.78754 40.2623L2.26556 39.9665C2.08099 40.2921 1.94671 40.6001 1.87231 40.8822C1.79849 41.162 1.77858 41.4356 1.84618 41.6801L2.42448 41.5202ZM2.78715 40.263C3.64764 38.7542 5.6843 36.7769 8.63511 34.5692C11.5753 32.3694 15.3904 29.9645 19.7688 27.5948L19.4832 27.0671C15.0858 29.4472 11.2446 31.8675 8.27567 34.0887C5.31741 36.302 3.19226 38.3415 2.26595 39.9658L2.78715 40.263ZM19.7682 27.5951C20.3471 27.2834 20.9287 26.9745 21.5187 26.6657L21.2404 26.1341C20.6484 26.4441 20.0647 26.754 19.4838 27.0668L19.7682 27.5951ZM21.0833 26.4472C21.171 26.9966 21.1263 27.5592 20.953 28.0876L21.5231 28.2746C21.7262 27.6554 21.7785 26.9963 21.6758 26.3526L21.0833 26.4472ZM21.2381 28.4811H21.2464V27.8811H21.2381V28.4811ZM22.2003 24.6971C21.3872 23.3905 19.8916 22.5352 18.1885 21.9125C16.4792 21.2875 14.5035 20.8772 12.6758 20.4977L12.5538 21.0852C14.3912 21.4667 16.322 21.8689 17.9824 22.476C19.649 23.0854 20.9862 23.8817 21.6908 25.0141L22.2003 24.6971ZM12.6763 20.4978C11.0438 20.1558 9.53926 19.8428 8.45908 19.4348L8.24708 19.9961C9.38098 20.4244 10.9395 20.747 12.5532 21.0851L12.6763 20.4978ZM8.45885 19.4347C7.36423 19.0223 6.57619 18.5897 6.07057 18.1458C5.56891 17.7053 5.36874 17.2768 5.38175 16.8564L4.78203 16.8379C4.76174 17.4935 5.08735 18.081 5.67471 18.5967C6.2581 19.1088 7.1223 19.5724 8.24731 19.9962L8.45885 19.4347ZM5.38172 16.8571C5.39211 16.5452 5.51209 16.151 5.76058 15.6791C6.00745 15.2102 6.37165 14.6825 6.84784 14.1083C7.80017 12.9599 9.18248 11.6467 10.9146 10.2723L10.5416 9.80228C8.78891 11.1931 7.37308 12.535 6.38599 13.7253C5.89247 14.3204 5.50165 14.883 5.22967 15.3995C4.95932 15.913 4.79664 16.3992 4.78205 16.8372L5.38172 16.8571ZM10.9145 10.2724C13.635 8.11544 17.0039 5.98393 20.1263 4.48392C21.6876 3.73391 23.1805 3.14503 24.4952 2.78884C25.8172 2.43069 26.9277 2.3166 27.7391 2.48427L27.8605 1.89668C26.9115 1.70058 25.6921 1.84294 24.3383 2.20972C22.9773 2.57845 21.4488 3.18297 19.8665 3.94309C16.7019 5.46333 13.2954 7.61899 10.5417 9.80221L10.9145 10.2724ZM27.7584 2.4876C27.8777 2.50425 27.9909 2.55157 28.0869 2.62512L28.4518 2.14879C28.2736 2.01236 28.0633 1.92434 27.8413 1.89335L27.7584 2.4876ZM28.0869 2.62512C28.1829 2.69867 28.2586 2.79601 28.3064 2.9078L28.8581 2.67177C28.7698 2.46539 28.6299 2.28522 28.4518 2.14879L28.0869 2.62512ZM28.3068 2.90872C28.4727 3.2927 28.7965 4.87961 26.2107 9.19456L26.7254 9.50298C29.328 5.15996 29.1469 3.34054 28.8577 2.67085L28.3068 2.90872ZM26.2144 9.18858C26.1044 9.3628 26.0584 9.57002 26.0845 9.77447L26.6797 9.69874C26.6712 9.6324 26.6862 9.56525 26.7217 9.50896L26.2144 9.18858ZM26.0845 9.77447C26.1105 9.9789 26.2068 10.168 26.3571 10.309L26.7676 9.87145C26.7193 9.82615 26.6881 9.76509 26.6797 9.69874L26.0845 9.77447ZM26.3683 10.319C26.4626 10.399 26.5731 10.4576 26.6923 10.4907L26.8528 9.9126C26.8175 9.90279 26.7846 9.88538 26.7565 9.86149L26.3683 10.319ZM26.6923 10.4907C26.8114 10.5238 26.9363 10.5306 27.0584 10.5106L26.9613 9.91849C26.9252 9.92442 26.8882 9.92242 26.8528 9.9126L26.6923 10.4907ZM27.0584 10.5106C27.1805 10.4905 27.2967 10.4442 27.3991 10.3748L27.0625 9.87815C27.032 9.89881 26.9974 9.91256 26.9613 9.91849L27.0584 10.5106ZM27.3991 10.3748C27.5015 10.3054 27.5876 10.2146 27.6515 10.1088L27.138 9.79849C27.1187 9.83035 27.0929 9.85749 27.0625 9.87815L27.3991 10.3748ZM27.6521 10.1078C28.7174 8.32908 29.4452 6.78077 29.8218 5.47467C30.1968 4.17404 30.235 3.07362 29.8645 2.2214L29.3143 2.46058C29.6042 3.12756 29.6035 4.06619 29.2453 5.30845C28.8887 6.54525 28.189 8.04368 27.1374 9.79951L27.6521 10.1078ZM29.8652 2.22285C29.7071 1.85392 29.4595 1.53052 29.1448 1.28227L28.7732 1.75333C29.0091 1.93943 29.1949 2.18206 29.3136 2.45914L29.8652 2.22285ZM29.1448 1.28227C28.8301 1.03401 28.4584 0.868839 28.0635 0.801982L27.9634 1.39356C28.2589 1.4436 28.5373 1.56725 28.7732 1.75333L29.1448 1.28227ZM28.0742 0.80398C27.0383 0.5899 25.7397 0.718035 24.3064 1.08191C22.8675 1.44721 21.2661 2.05715 19.6124 2.83319C16.3048 4.38522 12.7615 6.6139 9.84807 8.92416L10.2209 9.39429C13.1006 7.11075 16.6047 4.9073 19.8672 3.37636C21.4985 2.61091 23.0629 2.01664 24.454 1.66346C25.8508 1.30886 27.0464 1.20424 27.9527 1.39156L28.0742 0.80398ZM9.84742 8.92467C8.73243 9.81383 7.22125 11.1047 5.97573 12.4976C5.35294 13.1941 4.79061 13.9227 4.37726 14.6451C3.96551 15.3647 3.68976 16.0986 3.66671 16.8011L4.26639 16.8208C4.28496 16.2549 4.51106 15.6194 4.89803 14.9431C5.28339 14.2696 5.81667 13.5757 6.423 12.8976C7.63571 11.5413 9.11687 10.2747 10.2215 9.39377L9.84742 8.92467ZM3.66673 16.8006C3.60388 18.6224 5.13322 20.0241 7.85089 21.0444L8.06179 20.4827C5.37466 19.4738 4.21825 18.2162 4.26637 16.8213L3.66673 16.8006ZM7.85086 21.0444C9.06526 21.5005 10.6782 21.8339 12.3356 22.1725L12.4556 21.5847C10.7835 21.2431 9.22242 20.9186 8.06182 20.4827L7.85086 21.0444ZM12.3346 22.1723C14.0426 22.5272 15.8373 22.9013 17.3684 23.4308C18.9108 23.9642 20.1179 24.6338 20.716 25.5369L21.2163 25.2057C20.502 24.127 19.1274 23.4042 17.5644 22.8637C15.9901 22.3193 14.1557 21.9379 12.4566 21.5849L12.3346 22.1723ZM20.8273 25.1054C15.637 27.8146 11.2574 30.5195 7.92971 32.9761C4.61238 35.425 2.30872 37.6499 1.30867 39.4056L1.83003 39.7026C2.76382 38.0632 4.9785 35.9005 8.28606 33.4588C11.5832 31.0247 15.9351 28.3358 21.1049 25.6373L20.8273 25.1054ZM1.30858 39.4058C0.779188 40.3366 0.570206 41.2112 0.780766 41.9728L1.35907 41.8129C1.20894 41.2699 1.33848 40.5668 1.83012 39.7024L1.30858 39.4058ZM0.781302 41.9747C0.846206 42.2035 0.96517 42.4134 1.12824 42.5863L1.56481 42.1747C1.468 42.0721 1.3972 41.9473 1.35853 41.811L0.781302 41.9747ZM1.12824 42.5863C1.29132 42.7593 1.49369 42.8903 1.71814 42.968L1.91443 42.401C1.78159 42.355 1.66161 42.2774 1.56481 42.1747L1.12824 42.5863ZM1.71728 42.9677C2.05408 43.0854 2.40951 43.1402 2.766 43.1293L2.74764 42.5296C2.46474 42.5382 2.18265 42.4948 1.91529 42.4013L1.71728 42.9677ZM2.75682 43.1294C3.80882 43.1294 5.25118 42.7756 6.85272 42.1655C8.46132 41.5528 10.2556 40.6718 12.0192 39.5956L11.7066 39.0834C9.97146 40.1423 8.21017 41.0064 6.63914 41.6048C5.06104 42.2059 3.69972 42.5294 2.75682 42.5294V43.1294ZM12.019 39.5956C14.168 38.2856 16.5235 36.4966 18.4829 34.5605C20.435 32.6315 22.0257 30.5254 22.5969 28.5777L22.0211 28.4089C21.4936 30.2076 19.9921 32.2257 18.0612 34.1337C16.1376 36.0345 13.8195 37.7954 11.7067 39.0833L12.019 39.5956ZM22.5944 28.5857C22.886 27.6849 22.9197 26.7199 22.6917 25.8008L22.1094 25.9453C22.3104 26.7557 22.2807 27.6067 22.0236 28.4009L22.5944 28.5857ZM22.5393 26.1391C31.171 21.6376 45.5197 15.6658 63.6435 11.9367L63.5226 11.349C45.3388 15.0905 30.9377 21.0826 22.2618 25.6071L22.5393 26.1391ZM63.6433 11.9368C63.7535 11.9142 63.8581 11.87 63.9512 11.8069L63.6143 11.3104C63.5865 11.3292 63.5554 11.3423 63.5228 11.349L63.6433 11.9368ZM63.9512 11.8069C64.0443 11.7437 64.1239 11.6628 64.1857 11.5689L63.6844 11.2391C63.6658 11.2674 63.642 11.2916 63.6143 11.3104L63.9512 11.8069ZM64.1857 11.5689C64.2474 11.475 64.2902 11.3699 64.3115 11.2594L63.7224 11.1458C63.7159 11.1791 63.703 11.2108 63.6844 11.2391L64.1857 11.5689ZM64.3115 11.2594C64.3328 11.149 64.3322 11.0355 64.3099 10.9253L63.7219 11.0448C63.7286 11.0781 63.7288 11.1124 63.7224 11.1458L64.3115 11.2594ZM64.3099 10.9253C64.2875 10.8151 64.2437 10.7104 64.181 10.6171L63.683 10.9518C63.7019 10.9799 63.7151 11.0114 63.7219 11.0448L64.3099 10.9253ZM64.181 10.6171C64.1182 10.5237 64.0377 10.4437 63.9441 10.3815L63.6121 10.8813C63.6401 10.8998 63.6642 10.9238 63.683 10.9518L64.181 10.6171ZM63.9441 10.3815C63.8504 10.3192 63.7454 10.2761 63.635 10.2546L63.5203 10.8436C63.553 10.8499 63.5842 10.8627 63.6121 10.8813L63.9441 10.3815ZM63.635 10.2546C63.5246 10.2331 63.411 10.2337 63.3008 10.2563L63.4213 10.8441C63.454 10.8374 63.4876 10.8372 63.5203 10.8436L63.635 10.2546ZM63.3006 10.2563C45.0309 14.0145 30.5577 20.0289 21.8125 24.584L22.0897 25.1161C30.7908 20.584 45.2117 14.5898 63.4215 10.844L63.3006 10.2563Z" fill="#F9C859" mask="url(#path-14-outside-3_602_1077)"/>
</svg>
