<svg width="47" height="46" viewBox="0 0 47 46" fill="none" xmlns="http://www.w3.org/2000/svg">
<path d="M25 46C37.1503 46 47 36.1503 47 24C47 11.8497 37.1503 2 25 2C12.8497 2 3 11.8497 3 24C3 36.1503 12.8497 46 25 46Z" fill="#AAB89A"/>
<path d="M23 45C35.1503 45 45 35.1503 45 23C45 10.8497 35.1503 1 23 1C10.8497 1 1 10.8497 1 23" stroke="#547147" stroke-width="2" stroke-linecap="round" stroke-linejoin="round"/>
<path fill-rule="evenodd" clip-rule="evenodd" d="M21.4971 39V36.276C16.5108 35.4407 14.2475 31.6634 14 28.6852L18.8802 27.5593C19.057 29.6659 20.4715 31.5545 23.5128 31.5545C25.2809 31.5545 26.554 30.6828 26.554 29.2663C26.554 28.2131 25.776 27.523 24.3615 27.1961L21.2141 26.4334C17.2534 25.4528 14.8134 22.9831 14.8134 19.5327C14.8134 15.4649 17.7839 12.6683 21.4971 12.0145V9H25.5639V12.1235C29.4538 12.9952 31.222 15.8644 31.7171 18.3341L26.8016 19.678C26.5894 18.5521 25.9882 16.6634 23.1945 16.6634C21.2141 16.6634 20.224 17.862 20.224 19.0242C20.224 20.0048 20.9312 20.7676 22.3104 21.0944L25.387 21.7845C30.1257 22.8741 32 25.707 32 28.9758C32 32.3172 29.666 35.4407 25.5639 36.2034V38.9274L21.4971 39Z" stroke="#F6F1E4" stroke-width="2" stroke-linecap="round" stroke-linejoin="round"/>
</svg>
