<svg width="46" height="43" viewBox="0 0 46 43" fill="none" xmlns="http://www.w3.org/2000/svg">
<path fill-rule="evenodd" clip-rule="evenodd" d="M15.2643 19.2579H15.8754C17.3252 19.2579 18.6633 18.4748 19.3119 17.1782C20.5222 14.759 22.3503 10.7488 22.6728 8.0175C22.8119 6.83886 22.9115 5.44458 22.9828 4.05247C23.141 0.961513 26.514 -0.829846 28.4864 1.55524C29.6665 2.98225 30.5786 4.64424 30.5945 6.38207C30.6401 11.3559 29.0924 14.3193 29.0924 14.3193C29.0924 14.3193 38.6161 14.3193 40.9646 14.3193C43.3131 14.3193 45.936 15.51 45.9247 17.8684C45.9134 20.2268 42.9205 21.2333 42.9205 21.2333C42.9205 21.2333 45.0081 21.8598 44.896 24.1965C44.7838 26.5332 41.9328 27.1298 41.9328 27.1298C41.9328 27.1298 43.5704 28.8351 42.9205 30.621C42.2706 32.4069 39.9894 32.662 39.9894 32.662C39.9894 32.662 41.3799 34.2153 41.1271 35.6879C40.8744 37.1606 39.0463 38.0246 36.9942 38.0246C35.6508 38.0246 28.4472 38.0246 23.6317 38.0246C20.7268 38.0246 17.8626 37.3482 15.2643 36.0491V36.0491" fill="#F6F1E4"/>
<path d="M13.2643 21.2579H13.8754C15.3252 21.2579 16.6633 20.4748 17.3119 19.1782C18.5222 16.759 20.3503 12.7488 20.6728 10.0175C20.8119 8.83886 20.9115 7.44458 20.9828 6.05247C21.141 2.96151 24.514 1.17015 26.4864 3.55524C27.6665 4.98225 28.5786 6.64424 28.5945 8.38207C28.6401 13.3559 27.0924 16.3193 27.0924 16.3193C27.0924 16.3193 36.6161 16.3193 38.9646 16.3193C41.3131 16.3193 43.936 17.51 43.9247 19.8684C43.9134 22.2268 40.9205 23.2333 40.9205 23.2333C40.9205 23.2333 43.0081 23.8598 42.896 26.1965C42.7838 28.5332 39.9328 29.1298 39.9328 29.1298C39.9328 29.1298 41.5704 30.8351 40.9205 32.621C40.2706 34.4069 37.9894 34.662 37.9894 34.662C37.9894 34.662 39.3799 36.2153 39.1271 37.6879C38.8744 39.1606 37.0463 40.0246 34.9942 40.0246C33.6508 40.0246 26.4472 40.0246 21.6317 40.0246C18.7268 40.0246 15.8626 39.3482 13.2643 38.0491V38.0491" stroke="#547147" stroke-width="2" stroke-linecap="round" stroke-linejoin="round"/>
<path fill-rule="evenodd" clip-rule="evenodd" d="M6.07835 40C4.60559 40 3.41168 38.8061 3.41168 37.3333V18.9613C3.41168 17.4886 4.60559 16.2947 6.07835 16.2947H12.5977C14.0704 16.2947 15.2643 17.4886 15.2643 18.9613V37.3333C15.2643 38.8061 14.0704 40 12.5977 40H6.07835Z" fill="#AAB89A"/>
<path fill-rule="evenodd" clip-rule="evenodd" d="M4.07835 42C2.60559 42 1.41168 40.8061 1.41168 39.3333V20.9613C1.41168 19.4886 2.60559 18.2947 4.07835 18.2947H10.5977C12.0704 18.2947 13.2643 19.4886 13.2643 20.9613V39.3333C13.2643 40.8061 12.0704 42 10.5977 42H4.07835Z" stroke="#547147" stroke-width="2" stroke-linecap="square"/>
</svg>
