<svg width="109" height="11" viewBox="0 0 109 10" fill="none" xmlns="http://www.w3.org/2000/svg">
<path d="M5.87 2.74V7.36C5.87 8.25333 5.65 8.91333 5.21 9.34C4.77667 9.77333 4.12 9.99 3.24 9.99C2.75333 9.99 2.29 9.91667 1.85 9.77C1.41667 9.63 1.06333 9.43333 0.79 9.18L1.15 8.64C1.40333 8.86667 1.71 9.04333 2.07 9.17C2.43667 9.29667 2.82 9.36 3.22 9.36C3.88667 9.36 4.37667 9.20333 4.69 8.89C5.00333 8.58333 5.16 8.10333 5.16 7.45V6.78C4.94 7.11333 4.65 7.36667 4.29 7.54C3.93667 7.71333 3.54333 7.8 3.11 7.8C2.61667 7.8 2.16667 7.69333 1.76 7.48C1.36 7.26 1.04333 6.95667 0.81 6.57C0.583333 6.17667 0.47 5.73333 0.47 5.24C0.47 4.74667 0.583333 4.30667 0.81 3.92C1.04333 3.53333 1.36 3.23333 1.76 3.02C2.16 2.80667 2.61 2.7 3.11 2.7C3.55667 2.7 3.96 2.79 4.32 2.97C4.68 3.15 4.97 3.41 5.19 3.75V2.74H5.87ZM3.18 7.17C3.56 7.17 3.90333 7.09 4.21 6.93C4.51667 6.76333 4.75333 6.53333 4.92 6.24C5.09333 5.94667 5.18 5.61333 5.18 5.24C5.18 4.86667 5.09333 4.53667 4.92 4.25C4.75333 3.95667 4.51667 3.73 4.21 3.57C3.91 3.40333 3.56667 3.32 3.18 3.32C2.8 3.32 2.45667 3.4 2.15 3.56C1.85 3.72 1.61333 3.94667 1.44 4.24C1.27333 4.53333 1.19 4.86667 1.19 5.24C1.19 5.61333 1.27333 5.94667 1.44 6.24C1.61333 6.53333 1.85 6.76333 2.15 6.93C2.45667 7.09 2.8 7.17 3.18 7.17ZM12.5248 2.74V8H11.8448V7.04C11.6581 7.36 11.4014 7.61 11.0748 7.79C10.7481 7.96333 10.3748 8.05 9.95477 8.05C9.26143 8.05 8.71477 7.86 8.31477 7.48C7.92143 7.09333 7.72477 6.53 7.72477 5.79V2.74H8.43477V5.72C8.43477 6.27333 8.57143 6.69333 8.84477 6.98C9.1181 7.26667 9.51143 7.41 10.0248 7.41C10.5781 7.41 11.0148 7.24333 11.3348 6.91C11.6548 6.57 11.8148 6.1 11.8148 5.5V2.74H12.5248ZM16.9977 5.26C17.3711 5.34667 17.6577 5.49667 17.8577 5.71C18.0644 5.92333 18.1677 6.18333 18.1677 6.49C18.1677 6.79667 18.0611 7.07 17.8477 7.31C17.6411 7.55 17.3577 7.73667 16.9977 7.87C16.6377 7.99667 16.2411 8.06 15.8077 8.06C15.4277 8.06 15.0544 8.00667 14.6877 7.9C14.3211 7.78667 14.0011 7.62333 13.7277 7.41L13.9677 6.88C14.2077 7.06 14.4877 7.2 14.8077 7.3C15.1277 7.4 15.4511 7.45 15.7777 7.45C16.2644 7.45 16.6611 7.36 16.9677 7.18C17.2811 6.99333 17.4377 6.74333 17.4377 6.43C17.4377 6.15 17.3111 5.93333 17.0577 5.78C16.8044 5.62 16.4577 5.54 16.0177 5.54H15.1177V5.02H15.9777C16.3711 5.02 16.6877 4.94667 16.9277 4.8C17.1677 4.64667 17.2877 4.44333 17.2877 4.19C17.2877 3.91 17.1511 3.69 16.8777 3.53C16.6111 3.37 16.2611 3.29 15.8277 3.29C15.2611 3.29 14.7011 3.43333 14.1477 3.72L13.9477 3.17C14.5744 2.84333 15.2244 2.68 15.8977 2.68C16.2977 2.68 16.6577 2.74 16.9777 2.86C17.3044 2.97333 17.5577 3.13667 17.7377 3.35C17.9244 3.56333 18.0177 3.81 18.0177 4.09C18.0177 4.35667 17.9244 4.59333 17.7377 4.8C17.5577 5.00667 17.3111 5.16 16.9977 5.26ZM24.5595 2.74V8H23.8795V6.96C23.6662 7.31333 23.3829 7.58333 23.0295 7.77C22.6829 7.95667 22.2895 8.05 21.8495 8.05C21.3562 8.05 20.9095 7.93667 20.5095 7.71C20.1095 7.48333 19.7962 7.16667 19.5695 6.76C19.3429 6.35333 19.2295 5.89 19.2295 5.37C19.2295 4.85 19.3429 4.38667 19.5695 3.98C19.7962 3.57333 20.1095 3.26 20.5095 3.04C20.9095 2.81333 21.3562 2.7 21.8495 2.7C22.2762 2.7 22.6595 2.79 22.9995 2.97C23.3462 3.14333 23.6295 3.4 23.8495 3.74V2.74H24.5595ZM21.9095 7.42C22.2762 7.42 22.6062 7.33667 22.8995 7.17C23.1995 6.99667 23.4329 6.75333 23.5995 6.44C23.7729 6.12667 23.8595 5.77 23.8595 5.37C23.8595 4.97 23.7729 4.61333 23.5995 4.3C23.4329 3.98667 23.1995 3.74667 22.8995 3.58C22.6062 3.40667 22.2762 3.32 21.9095 3.32C21.5362 3.32 21.1995 3.40667 20.8995 3.58C20.6062 3.74667 20.3729 3.98667 20.1995 4.3C20.0329 4.61333 19.9495 4.97 19.9495 5.37C19.9495 5.77 20.0329 6.12667 20.1995 6.44C20.3729 6.75333 20.6062 6.99667 20.8995 7.17C21.1995 7.33667 21.5362 7.42 21.9095 7.42ZM31.1869 2.74V8H30.5069V7.04C30.3202 7.36 30.0635 7.61 29.7369 7.79C29.4102 7.96333 29.0369 8.05 28.6169 8.05C27.9235 8.05 27.3769 7.86 26.9769 7.48C26.5835 7.09333 26.3869 6.53 26.3869 5.79V2.74H27.0969V5.72C27.0969 6.27333 27.2335 6.69333 27.5069 6.98C27.7802 7.26667 28.1735 7.41 28.6869 7.41C29.2402 7.41 29.6769 7.24333 29.9969 6.91C30.3169 6.57 30.4769 6.1 30.4769 5.5V2.74H31.1869ZM28.7869 1.99C28.3335 1.99 27.9735 1.87667 27.7069 1.65C27.4402 1.42333 27.3035 1.10333 27.2969 0.69H27.8069C27.8135 0.95 27.9069 1.16 28.0869 1.32C28.2669 1.47333 28.5002 1.55 28.7869 1.55C29.0735 1.55 29.3069 1.47333 29.4869 1.32C29.6735 1.16 29.7702 0.95 29.7769 0.69H30.2869C30.2802 1.10333 30.1402 1.42333 29.8669 1.65C29.6002 1.87667 29.2402 1.99 28.7869 1.99ZM33.2073 2.74H33.9173V5.07H37.2273V2.74H37.9373V8H37.2273V5.68H33.9173V8H33.2073V2.74ZM47.2025 2.74V8H46.5225V7.04C46.3358 7.36 46.0792 7.61 45.7525 7.79C45.4258 7.96333 45.0525 8.05 44.6325 8.05C43.9392 8.05 43.3925 7.86 42.9925 7.48C42.5992 7.09333 42.4025 6.53 42.4025 5.79V2.74H43.1125V5.72C43.1125 6.27333 43.2492 6.69333 43.5225 6.98C43.7958 7.26667 44.1892 7.41 44.7025 7.41C45.2558 7.41 45.6925 7.24333 46.0125 6.91C46.3325 6.57 46.4925 6.1 46.4925 5.5V2.74H47.2025ZM49.2229 2.74H49.9329V5.07H53.2429V2.74H53.9529V8H53.2429V5.68H49.9329V8H49.2229V2.74ZM62.5309 2.7C63.1909 2.7 63.7076 2.89 64.0809 3.27C64.4609 3.65 64.6509 4.21 64.6509 4.95V8H63.9409V5.02C63.9409 4.47333 63.8076 4.05667 63.5409 3.77C63.2809 3.48333 62.9109 3.34 62.4309 3.34C61.8843 3.34 61.4543 3.51 61.1409 3.85C60.8276 4.18333 60.6709 4.64667 60.6709 5.24V8H59.9609V5.02C59.9609 4.47333 59.8276 4.05667 59.5609 3.77C59.3009 3.48333 58.9276 3.34 58.4409 3.34C57.9009 3.34 57.4709 3.51 57.1509 3.85C56.8376 4.18333 56.6809 4.64667 56.6809 5.24V8H55.9709V2.74H56.6509V3.7C56.8376 3.38 57.0976 3.13333 57.4309 2.96C57.7643 2.78667 58.1476 2.7 58.5809 2.7C59.0209 2.7 59.4009 2.79333 59.7209 2.98C60.0476 3.16667 60.2909 3.44333 60.4509 3.81C60.6443 3.46333 60.9209 3.19333 61.2809 3C61.6476 2.8 62.0643 2.7 62.5309 2.7ZM68.738 7.42C69.0647 7.42 69.3647 7.36333 69.638 7.25C69.918 7.13 70.1547 6.95667 70.348 6.73L70.748 7.19C70.5147 7.47 70.2247 7.68333 69.878 7.83C69.5314 7.97667 69.148 8.05 68.728 8.05C68.188 8.05 67.708 7.93667 67.288 7.71C66.868 7.47667 66.5414 7.15667 66.308 6.75C66.0747 6.34333 65.958 5.88333 65.958 5.37C65.958 4.85667 66.068 4.39667 66.288 3.99C66.5147 3.58333 66.8247 3.26667 67.218 3.04C67.6114 2.81333 68.058 2.7 68.558 2.7C69.0247 2.7 69.4447 2.80667 69.818 3.02C70.198 3.23333 70.498 3.53 70.718 3.91C70.9447 4.29 71.0647 4.72333 71.078 5.21L66.758 6.05C66.8914 6.47667 67.1314 6.81333 67.478 7.06C67.8314 7.3 68.2514 7.42 68.738 7.42ZM68.558 3.31C68.1914 3.31 67.8614 3.39667 67.568 3.57C67.2814 3.73667 67.0547 3.97333 66.888 4.28C66.728 4.58 66.648 4.92667 66.648 5.32C66.648 5.42 66.6514 5.49333 66.658 5.54L70.368 4.82C70.288 4.38 70.0847 4.02 69.758 3.74C69.4314 3.45333 69.0314 3.31 68.558 3.31ZM74.9632 2.7C75.4765 2.7 75.9332 2.81333 76.3332 3.04C76.7332 3.26667 77.0432 3.58333 77.2632 3.99C77.4899 4.39667 77.6032 4.86 77.6032 5.38C77.6032 5.9 77.4932 6.36333 77.2732 6.77C77.0532 7.17 76.7465 7.48333 76.3532 7.71C75.9665 7.93667 75.5232 8.05 75.0232 8.05C74.5832 8.05 74.1899 7.96333 73.8432 7.79C73.5032 7.61 73.2265 7.35333 73.0132 7.02V9.94H72.3032V5.39C72.3032 4.86333 72.4132 4.39667 72.6332 3.99C72.8599 3.58333 73.1732 3.26667 73.5732 3.04C73.9799 2.81333 74.4432 2.7 74.9632 2.7ZM74.9432 7.43C75.3165 7.43 75.6532 7.34333 75.9532 7.17C76.2532 6.99667 76.4865 6.75333 76.6532 6.44C76.8199 6.12667 76.9032 5.77333 76.9032 5.38C76.9032 4.98667 76.8199 4.63333 76.6532 4.32C76.4865 4.00667 76.2532 3.76333 75.9532 3.59C75.6532 3.41 75.3165 3.32 74.9432 3.32C74.5699 3.32 74.2332 3.40667 73.9332 3.58C73.6399 3.75333 73.4099 3.99667 73.2432 4.31C73.0832 4.61667 73.0032 4.97 73.0032 5.37C73.0032 5.77 73.0832 6.12667 73.2432 6.44C73.4099 6.75333 73.6399 6.99667 73.9332 7.17C74.2332 7.34333 74.5699 7.43 74.9432 7.43ZM81.255 8.11C80.535 8.11 79.9783 7.93 79.585 7.57C79.1917 7.21 78.995 6.70667 78.995 6.06V2.74H79.705V4.93C79.8783 4.72333 80.115 4.56 80.415 4.44C80.7217 4.32 81.0617 4.26 81.435 4.26C82.0883 4.26 82.595 4.42667 82.955 4.76C83.3217 5.09333 83.505 5.54 83.505 6.1C83.505 6.70667 83.305 7.19333 82.905 7.56C82.505 7.92667 81.955 8.11 81.255 8.11ZM81.265 7.56C81.7383 7.56 82.1083 7.42667 82.375 7.16C82.6483 6.89333 82.785 6.54667 82.785 6.12C82.785 5.72 82.6517 5.4 82.385 5.16C82.1183 4.92 81.7417 4.8 81.255 4.8C80.895 4.8 80.5783 4.87333 80.305 5.02C80.0383 5.16667 79.8383 5.37 79.705 5.63V6.11C79.705 6.56333 79.8417 6.92 80.115 7.18C80.395 7.43333 80.7783 7.56 81.265 7.56ZM87.117 7.42C87.4436 7.42 87.7436 7.36333 88.017 7.25C88.297 7.13 88.5336 6.95667 88.727 6.73L89.127 7.19C88.8936 7.47 88.6036 7.68333 88.257 7.83C87.9103 7.97667 87.527 8.05 87.107 8.05C86.567 8.05 86.087 7.93667 85.667 7.71C85.247 7.47667 84.9203 7.15667 84.687 6.75C84.4536 6.34333 84.337 5.88333 84.337 5.37C84.337 4.85667 84.447 4.39667 84.667 3.99C84.8936 3.58333 85.2036 3.26667 85.597 3.04C85.9903 2.81333 86.437 2.7 86.937 2.7C87.4036 2.7 87.8236 2.80667 88.197 3.02C88.577 3.23333 88.877 3.53 89.097 3.91C89.3236 4.29 89.4436 4.72333 89.457 5.21L85.137 6.05C85.2703 6.47667 85.5103 6.81333 85.857 7.06C86.2103 7.3 86.6303 7.42 87.117 7.42ZM86.937 3.31C86.5703 3.31 86.2403 3.39667 85.947 3.57C85.6603 3.73667 85.4336 3.97333 85.267 4.28C85.107 4.58 85.027 4.92667 85.027 5.32C85.027 5.42 85.0303 5.49333 85.037 5.54L88.747 4.82C88.667 4.38 88.4636 4.02 88.137 3.74C87.8103 3.45333 87.4103 3.31 86.937 3.31ZM93.3421 2.7C93.8554 2.7 94.3121 2.81333 94.7121 3.04C95.1121 3.26667 95.4221 3.58333 95.6421 3.99C95.8688 4.39667 95.9821 4.86 95.9821 5.38C95.9821 5.9 95.8721 6.36333 95.6521 6.77C95.4321 7.17 95.1254 7.48333 94.7321 7.71C94.3454 7.93667 93.9021 8.05 93.4021 8.05C92.9621 8.05 92.5688 7.96333 92.2221 7.79C91.8821 7.61 91.6054 7.35333 91.3921 7.02V9.94H90.6821V5.39C90.6821 4.86333 90.7921 4.39667 91.0121 3.99C91.2388 3.58333 91.5521 3.26667 91.9521 3.04C92.3588 2.81333 92.8221 2.7 93.3421 2.7ZM93.3221 7.43C93.6954 7.43 94.0321 7.34333 94.3321 7.17C94.6321 6.99667 94.8654 6.75333 95.0321 6.44C95.1988 6.12667 95.2821 5.77333 95.2821 5.38C95.2821 4.98667 95.1988 4.63333 95.0321 4.32C94.8654 4.00667 94.6321 3.76333 94.3321 3.59C94.0321 3.41 93.6954 3.32 93.3221 3.32C92.9488 3.32 92.6121 3.40667 92.3121 3.58C92.0188 3.75333 91.7888 3.99667 91.6221 4.31C91.4621 4.61667 91.3821 4.97 91.3821 5.37C91.3821 5.77 91.4621 6.12667 91.6221 6.44C91.7888 6.75333 92.0188 6.99667 92.3121 7.17C92.6121 7.34333 92.9488 7.43 93.3221 7.43ZM99.6839 8.05C99.1772 8.05 98.7206 7.93667 98.3139 7.71C97.9072 7.47667 97.5872 7.15667 97.3539 6.75C97.1206 6.34333 97.0039 5.88333 97.0039 5.37C97.0039 4.85667 97.1206 4.39667 97.3539 3.99C97.5872 3.58333 97.9072 3.26667 98.3139 3.04C98.7206 2.81333 99.1772 2.7 99.6839 2.7C100.191 2.7 100.647 2.81333 101.054 3.04C101.461 3.26667 101.777 3.58333 102.004 3.99C102.237 4.39667 102.354 4.85667 102.354 5.37C102.354 5.88333 102.237 6.34333 102.004 6.75C101.777 7.15667 101.461 7.47667 101.054 7.71C100.647 7.93667 100.191 8.05 99.6839 8.05ZM99.6839 7.42C100.057 7.42 100.391 7.33667 100.684 7.17C100.984 6.99667 101.217 6.75333 101.384 6.44C101.551 6.12667 101.634 5.77 101.634 5.37C101.634 4.97 101.551 4.61333 101.384 4.3C101.217 3.98667 100.984 3.74667 100.684 3.58C100.391 3.40667 100.057 3.32 99.6839 3.32C99.3106 3.32 98.9739 3.40667 98.6739 3.58C98.3806 3.74667 98.1472 3.98667 97.9739 4.3C97.8072 4.61333 97.7239 4.97 97.7239 5.37C97.7239 5.77 97.8072 6.12667 97.9739 6.44C98.1472 6.75333 98.3806 6.99667 98.6739 7.17C98.9739 7.33667 99.3106 7.42 99.6839 7.42ZM107.221 5.28C107.935 5.44667 108.291 5.87667 108.291 6.57C108.291 7.03 108.121 7.38333 107.781 7.63C107.441 7.87667 106.935 8 106.261 8H103.871V2.74H106.191C106.791 2.74 107.261 2.85667 107.601 3.09C107.941 3.32333 108.111 3.65667 108.111 4.09C108.111 4.37667 108.031 4.62333 107.871 4.83C107.718 5.03 107.501 5.18 107.221 5.28ZM104.561 5.08H106.141C106.548 5.08 106.858 5.00333 107.071 4.85C107.291 4.69667 107.401 4.47333 107.401 4.18C107.401 3.88667 107.291 3.66667 107.071 3.52C106.858 3.37333 106.548 3.3 106.141 3.3H104.561V5.08ZM106.231 7.44C106.685 7.44 107.025 7.36667 107.251 7.22C107.478 7.07333 107.591 6.84333 107.591 6.53C107.591 6.21667 107.488 5.98667 107.281 5.84C107.075 5.68667 106.748 5.61 106.301 5.61H104.561V7.44H106.231Z" fill="black"/>
</svg>
